<svg width="200" height="200" viewBox="0 0 200 200" fill="none" xmlns="http://www.w3.org/2000/svg">
<path d="M169.048 28.5714C173.112 28.5714 177.137 29.372 180.893 30.9275C184.648 32.483 188.06 34.763 190.934 37.6372C193.808 40.5114 196.088 43.9235 197.644 47.6788C199.199 51.4342 200 55.4591 200 59.5238V169.048C200 173.112 199.199 177.137 197.644 180.893C196.088 184.648 193.808 188.06 190.934 190.934C188.06 193.808 184.648 196.088 180.893 197.644C177.137 199.199 173.112 200 169.048 200H59.5238C55.4591 200 51.4342 199.199 47.6788 197.644C43.9235 196.088 40.5114 193.808 37.6372 190.934C34.763 188.06 32.483 184.648 30.9275 180.893C29.372 177.137 28.5714 173.112 28.5714 169.048V109.543C33.0857 111.429 37.8762 112.781 42.8571 113.562V169.048C42.8571 171.029 43.2 172.933 43.8381 174.705L99.2952 120.41C103.097 116.688 108.147 114.513 113.463 114.309C118.779 114.105 123.981 115.886 128.057 119.305L129.276 120.41L184.724 174.714C185.362 172.943 185.714 171.038 185.714 169.048V59.5238C185.714 55.1035 183.958 50.8643 180.833 47.7387C177.707 44.6131 173.468 42.8571 169.048 42.8571H113.562C112.804 37.9505 111.454 33.1536 109.543 28.5714H169.048ZM110.086 129.943L109.286 130.61L53.981 184.771C55.7143 185.381 57.581 185.714 59.5238 185.714H169.048C170.981 185.714 172.848 185.381 174.571 184.771L119.286 130.619C118.08 129.437 116.494 128.72 114.81 128.597C113.125 128.473 111.452 128.95 110.086 129.943ZM145.257 61.9048C150.945 61.9048 156.401 64.1644 160.423 68.1866C164.445 72.2088 166.705 77.6641 166.705 83.3524C166.705 89.0406 164.445 94.4959 160.423 98.5181C156.401 102.54 150.945 104.8 145.257 104.8C139.569 104.8 134.114 102.54 130.091 98.5181C126.069 94.4959 123.81 89.0406 123.81 83.3524C123.81 77.6641 126.069 72.2088 130.091 68.1866C134.114 64.1644 139.569 61.9048 145.257 61.9048ZM52.381 0C59.2597 -1.02502e-07 66.0711 1.35487 72.4263 3.98726C78.7814 6.61965 84.5559 10.478 89.4199 15.342C94.2839 20.206 98.1423 25.9805 100.775 32.3356C103.407 38.6908 104.762 45.5022 104.762 52.381C104.762 59.2597 103.407 66.0711 100.775 72.4263C98.1423 78.7814 94.2839 84.5559 89.4199 89.4199C84.5559 94.2839 78.7814 98.1423 72.4263 100.775C66.0711 103.407 59.2597 104.762 52.381 104.762C38.4887 104.762 25.1654 99.2432 15.342 89.4199C5.51869 79.5965 0 66.2732 0 52.381C0 38.4887 5.51869 25.1654 15.342 15.342C25.1654 5.51869 38.4887 2.07011e-07 52.381 0ZM145.257 76.1905C144.317 76.1905 143.385 76.3757 142.516 76.7356C141.647 77.0956 140.858 77.6231 140.193 78.2881C139.528 78.9532 139 79.7427 138.64 80.6116C138.28 81.4806 138.095 82.4119 138.095 83.3524C138.095 84.2929 138.28 85.2242 138.64 86.0931C139 86.962 139.528 87.7516 140.193 88.4166C140.858 89.0816 141.647 89.6092 142.516 89.9691C143.385 90.329 144.317 90.5143 145.257 90.5143C147.157 90.5143 148.978 89.7597 150.321 88.4166C151.664 87.0735 152.419 85.2518 152.419 83.3524C152.419 81.4529 151.664 79.6313 150.321 78.2881C148.978 76.945 147.157 76.1905 145.257 76.1905ZM52.381 19.0476L51.5238 19.1143C50.5723 19.2881 49.6964 19.7476 49.0124 20.4315C48.3285 21.1154 47.8691 21.9914 47.6952 22.9429L47.619 23.8095V47.619H23.7905L22.9333 47.6952C21.9819 47.8691 21.1059 48.3285 20.422 49.0124C19.738 49.6964 19.2786 50.5723 19.1048 51.5238L19.0286 52.381L19.1048 53.2381C19.2786 54.1896 19.738 55.0655 20.422 55.7495C21.1059 56.4334 21.9819 56.8928 22.9333 57.0667L23.7905 57.1429H47.619V80.981L47.6952 81.8381C47.8691 82.7896 48.3285 83.6655 49.0124 84.3495C49.6964 85.0334 50.5723 85.4928 51.5238 85.6667L52.381 85.7524L53.2381 85.6667C54.1896 85.4928 55.0655 85.0334 55.7495 84.3495C56.4334 83.6655 56.8928 82.7896 57.0667 81.8381L57.1429 80.981V57.1429H81L81.8571 57.0667C82.8086 56.8928 83.6846 56.4334 84.3685 55.7495C85.0524 55.0655 85.5119 54.1896 85.6857 53.2381L85.7619 52.381L85.6857 51.5238C85.5113 50.571 85.0504 49.6941 84.3647 49.01C83.6789 48.326 82.8008 47.8673 81.8476 47.6952L80.9905 47.619H57.1429V23.8095L57.0667 22.9524C56.8946 21.9992 56.4359 21.1211 55.7519 20.4353C55.0678 19.7496 54.1909 19.2887 53.2381 19.1143L52.381 19.0476Z" fill="#E3A29A"/>
</svg>
